<svg width="16" height="16" viewBox="0 0 16 16" fill="none" xmlns="http://www.w3.org/2000/svg">
<path fill-rule="evenodd" clip-rule="evenodd" d="M1 4C1 2.34315 2.34315 1 4 1H6C6.55228 1 7 1.44772 7 2C7 2.55228 6.55228 3 6 3H4C3.44772 3 3 3.44772 3 4V6C3 6.55228 2.55228 7 2 7C1.44772 7 1 6.55228 1 6V4Z" fill="black"/>
<path fill-rule="evenodd" clip-rule="evenodd" d="M1 12C1 13.6569 2.34315 15 4 15H6C6.55228 15 7 14.5523 7 14C7 13.4477 6.55228 13 6 13H4C3.44772 13 3 12.5523 3 12V10C3 9.44772 2.55228 9 2 9C1.44772 9 1 9.44772 1 10V12Z" fill="black"/>
<path fill-rule="evenodd" clip-rule="evenodd" d="M15 12C15 13.6569 13.6569 15 12 15H10C9.44772 15 9 14.5523 9 14C9 13.4477 9.44772 13 10 13H12C12.5523 13 13 12.5523 13 12V10C13 9.44772 13.4477 9 14 9C14.5523 9 15 9.44772 15 10V12Z" fill="black"/>
<path fill-rule="evenodd" clip-rule="evenodd" d="M15 4C15 2.34315 13.6569 1 12 1H10C9.44772 1 9 1.44772 9 2C9 2.55228 9.44772 3 10 3H12C12.5523 3 13 3.44772 13 4V6C13 6.55228 13.4477 7 14 7C14.5523 7 15 6.55228 15 6V4Z" fill="black"/>
</svg>
