<svg width="16" height="16" viewBox="0 0 16 16" fill="none" xmlns="http://www.w3.org/2000/svg">
<path fill-rule="evenodd" clip-rule="evenodd" d="M3 1C1.34315 1 0 2.34315 0 4V12C0 13.6569 1.34315 15 3 15H13C14.6569 15 16 13.6569 16 12V4C16 2.34315 14.6569 1 13 1H3ZM3.62469 3.21913C3.19343 2.87412 2.56414 2.94404 2.21913 3.3753C1.87412 3.80657 1.94404 4.43586 2.37531 4.78087L7.37531 8.78087C7.74052 9.07304 8.25948 9.07304 8.62469 8.78087L13.6247 4.78087C14.056 4.43586 14.1259 3.80657 13.7809 3.3753C13.4359 2.94404 12.8066 2.87412 12.3753 3.21913L8 6.71938L3.62469 3.21913Z" fill="black"/>
</svg>
