<svg width="16" height="16" viewBox="0 0 16 16" fill="none" xmlns="http://www.w3.org/2000/svg">
<path d="M6 10.1169V5.8831C6 5.49445 6.42399 5.25439 6.75725 5.45435L10.2854 7.57125C10.6091 7.76546 10.6091 8.23455 10.2854 8.42875L6.75725 10.5457C6.42399 10.7456 6 10.5056 6 10.1169Z" fill="black"/>
<path d="M8 14C4.68629 14 2 11.3137 2 8C2 4.68629 4.68629 2 8 2C10.6721 2 12.9362 3.74676 13.7128 6.16071C13.8656 6.63564 14.2825 7 14.7814 7C15.3957 7 15.8758 6.45846 15.7123 5.86634C14.7786 2.48391 11.6794 0 8 0C3.58172 0 0 3.58172 0 8C0 12.4183 3.58172 16 8 16C8.43428 16 8.86047 15.9654 9.27598 15.8988C9.70595 15.8299 10 15.4436 10 15.0081C10 14.3495 9.34214 13.8863 8.68774 13.961C8.46206 13.9868 8.23257 14 8 14Z" fill="black"/>
<path d="M16 8.0079V7.9921C16 7.99473 16 7.99737 16 8C16 8.00263 16 8.00527 16 8.0079Z" fill="black"/>
<circle cx="13" cy="14" r="2" fill="black"/>
<rect x="13" y="8" width="2" height="7" rx="1" fill="black"/>
<rect x="13" y="8" width="3" height="2" rx="1" fill="black"/>
</svg>
