<svg width="16" height="16" viewBox="0 0 16 16" fill="none" xmlns="http://www.w3.org/2000/svg">
<g clip-path="url(#clip0)">
<path d="M15 13H13.2625C11.7834 13 10.6277 11.723 10.7749 10.2512L10.8109 9.89082C10.9183 8.81742 11.8215 8 12.9002 8V8C14.0599 8 15 7.05991 15 5.90025V5.47487C15 4.10804 13.892 3 12.5251 3V3C11.8687 3 11.2393 3.26075 10.7751 3.72487L10.5 4" stroke="black" stroke-width="2" stroke-linecap="round" stroke-linejoin="round"/>
<path fill-rule="evenodd" clip-rule="evenodd" d="M7.66663 10.8333H2.66663V8.83331H7.66663V10.8333Z" fill="black"/>
<path fill-rule="evenodd" clip-rule="evenodd" d="M5.00002 2C5.40893 2 5.77664 2.24895 5.9285 2.62861L9.9285 12.6286C10.1336 13.1414 9.8842 13.7234 9.37141 13.9285C8.85863 14.1336 8.27666 13.8842 8.07154 13.3714L5.00002 5.69258L1.9285 13.3714C1.72339 13.8842 1.14141 14.1336 0.628631 13.9285C0.115848 13.7234 -0.133568 13.1414 0.0715452 12.6286L4.07155 2.62861C4.22341 2.24895 4.59112 2 5.00002 2Z" fill="black"/>
</g>
<defs>
<clipPath id="clip0">
<rect width="16" height="16" fill="white" transform="matrix(-1 0 0 1 16 0)"/>
</clipPath>
</defs>
</svg>
